<svg width="51" height="51" viewBox="0 0 51 51" fill="none" xmlns="http://www.w3.org/2000/svg">
<path d="M25.5 0C11.4176 0 0 11.416 0 25.5C0 39.584 11.416 51 25.5 51C39.584 51 51 39.584 51 25.5C51 11.416 39.584 0 25.5 0ZM25.5 47.8635C13.1963 47.8635 3.1875 37.8037 3.1875 25.5C3.1875 13.1963 13.1963 3.1875 25.5 3.1875C37.8037 3.1875 47.8125 13.1963 47.8125 25.5C47.8125 37.8037 37.8037 47.8635 25.5 47.8635ZM34.5158 16.4857C33.8943 15.8642 32.8854 15.8642 32.2623 16.4857L25.5016 23.2464L18.7409 16.4857C18.1193 15.8642 17.1089 15.8642 16.4857 16.4857C15.8626 17.1073 15.8642 18.1178 16.4857 18.7393L23.2464 25.5L16.4857 32.2607C15.8642 32.8823 15.8642 33.8927 16.4857 34.5143C17.1073 35.1358 18.1177 35.1358 18.7409 34.5143L25.5016 27.7536L32.2623 34.5143C32.8838 35.1358 33.8927 35.1358 34.5158 34.5143C35.139 33.8927 35.1374 32.8823 34.5158 32.2607L27.7552 25.5L34.5158 18.7393C35.139 18.1162 35.139 17.1073 34.5158 16.4857Z" fill="#FAFAFA"/>
</svg>
