<svg width="51" height="51" viewBox="0 0 51 51" fill="none" xmlns="http://www.w3.org/2000/svg">
<path d="M24.3238 35.0754C24.6258 35.4056 25.0525 35.5938 25.5 35.5938C25.9475 35.5938 26.3742 35.4056 26.6762 35.0754L35.1762 25.7785C35.7702 25.1289 35.725 24.1208 35.0754 23.5269C34.4258 22.933 33.4177 22.9781 32.8238 23.6277L27.0937 29.8949L27.0937 6.375C27.0937 5.49483 26.3802 4.78125 25.5 4.78125C24.6198 4.78125 23.9062 5.49483 23.9062 6.375L23.9062 29.8949L18.1762 23.6277C17.5822 22.9781 16.5741 22.933 15.9245 23.5269C15.2749 24.1208 15.2299 25.1289 15.8238 25.7785L24.3238 35.0754Z" fill="#FAFAFA"/>
<path d="M7.96875 31.875C7.96875 30.9948 7.25522 30.2812 6.375 30.2812C5.4948 30.2812 4.78125 30.9948 4.78125 31.875V31.9917C4.78121 34.8978 4.78117 37.2402 5.02886 39.0826C5.28602 40.9953 5.83616 42.6056 7.11524 43.8846C8.39432 45.1639 10.0048 45.7141 11.9175 45.9712C13.7598 46.2187 16.1023 46.2187 19.0084 46.2187H31.9917C34.8978 46.2187 37.2402 46.2187 39.0826 45.9712C40.9953 45.7141 42.6056 45.1639 43.8849 43.8846C45.1639 42.6056 45.7141 40.9953 45.9712 39.0826C46.2187 37.2402 46.2188 34.8978 46.2188 31.9917V31.875C46.2188 30.9948 45.5052 30.2812 44.625 30.2812C43.7448 30.2812 43.0312 30.9948 43.0312 31.875C43.0312 34.9252 43.0279 37.0526 42.8122 38.6578C42.6024 40.2171 42.2191 41.0427 41.6309 41.6309C41.0427 42.2191 40.2171 42.6024 38.6578 42.8122C37.0526 43.0278 34.9252 43.0312 31.875 43.0312H19.125C16.0748 43.0312 13.9474 43.0278 12.3423 42.8122C10.783 42.6024 9.95726 42.2191 9.36915 41.6309C8.78103 41.0427 8.39758 40.2171 8.18794 38.6578C7.97213 37.0526 7.96875 34.9252 7.96875 31.875Z" fill="#FAFAFA"/>
</svg>
